<svg width="32" height="32" viewBox="0 0 32 32" fill="none" xmlns="http://www.w3.org/2000/svg">
  <!-- Background Circle with Gradient -->
  <circle cx="16" cy="16" r="16" fill="url(#gradient1)"/>
  
  <!-- Main Icon - Graduation Cap with Book -->
  <g transform="translate(8, 6)">
    <!-- Graduation Cap -->
    <path d="M8 2L2 5L8 8L14 5L8 2Z" fill="url(#gradient2)" stroke="white" stroke-width="0.5"/>
    <path d="M2 5L8 8L8 12L2 9L2 5Z" fill="url(#gradient3)" stroke="white" stroke-width="0.5"/>
    <path d="M8 8L14 5L14 9L8 12L8 8Z" fill="url(#gradient4)" stroke="white" stroke-width="0.5"/>
    
    <!-- Tassel -->
    <line x1="8" y1="8" x2="8" y2="12" stroke="white" stroke-width="1"/>
    <circle cx="8" cy="12" r="1" fill="white"/>
    
    <!-- Book -->
    <rect x="4" y="14" width="8" height="6" rx="1" fill="url(#gradient5)" stroke="white" stroke-width="0.5"/>
    <line x1="6" y1="16" x2="10" y2="16" stroke="white" stroke-width="0.5"/>
    <line x1="6" y1="17.5" x2="9" y2="17.5" stroke="white" stroke-width="0.5"/>
  </g>
  
  <!-- Decorative Elements -->
  <circle cx="6" cy="6" r="1" fill="rgba(255,255,255,0.3)"/>
  <circle cx="26" cy="8" r="1.5" fill="rgba(255,255,255,0.2)"/>
  <circle cx="24" cy="24" r="1" fill="rgba(255,255,255,0.3)"/>
  
  <!-- Gradients -->
  <defs>
    <linearGradient id="gradient1" x1="0%" y1="0%" x2="100%" y2="100%">
      <stop offset="0%" style="stop-color:#6366f1;stop-opacity:1" />
      <stop offset="50%" style="stop-color:#8b5cf6;stop-opacity:1" />
      <stop offset="100%" style="stop-color:#ec4899;stop-opacity:1" />
    </linearGradient>
    <linearGradient id="gradient2" x1="0%" y1="0%" x2="100%" y2="100%">
      <stop offset="0%" style="stop-color:#ffffff;stop-opacity:0.9" />
      <stop offset="100%" style="stop-color:#f8fafc;stop-opacity:0.8" />
    </linearGradient>
    <linearGradient id="gradient3" x1="0%" y1="0%" x2="100%" y2="100%">
      <stop offset="0%" style="stop-color:#ffffff;stop-opacity:0.7" />
      <stop offset="100%" style="stop-color:#f1f5f9;stop-opacity:0.6" />
    </linearGradient>
    <linearGradient id="gradient4" x1="0%" y1="0%" x2="100%" y2="100%">
      <stop offset="0%" style="stop-color:#ffffff;stop-opacity:0.8" />
      <stop offset="100%" style="stop-color:#f8fafc;stop-opacity:0.7" />
    </linearGradient>
    <linearGradient id="gradient5" x1="0%" y1="0%" x2="100%" y2="100%">
      <stop offset="0%" style="stop-color:#ffffff;stop-opacity:0.6" />
      <stop offset="100%" style="stop-color:#f1f5f9;stop-opacity:0.5" />
    </linearGradient>
  </defs>
</svg>
